<svg width="200" height="200" xmlns="http://www.w3.org/2000/svg">
  <defs>
    <linearGradient id="bgGradient" x1="0%" y1="0%" x2="100%" y2="100%">
      <stop offset="0%" style="stop-color:#1f4e79;stop-opacity:1" />
      <stop offset="100%" style="stop-color:#0f172a;stop-opacity:1" />
    </linearGradient>
    <linearGradient id="textGradient" x1="0%" y1="0%" x2="100%" y2="0%">
      <stop offset="0%" style="stop-color:#00ffff;stop-opacity:1" />
      <stop offset="100%" style="stop-color:#3b82f6;stop-opacity:1" />
    </linearGradient>
  </defs>
  
  <!-- Background Circle -->
  <circle cx="100" cy="100" r="95" fill="url(#bgGradient)" stroke="#00ffff" stroke-width="3"/>
  
  <!-- Glow Effect -->
  <circle cx="100" cy="100" r="95" fill="none" stroke="url(#textGradient)" stroke-width="2" opacity="0.5"/>
  
  <!-- Main Title -->
  <text x="100" y="65" text-anchor="middle" font-family="Orbitron, monospace" font-size="16" font-weight="bold" fill="url(#textGradient)">MODEL</text>
  <text x="100" y="85" text-anchor="middle" font-family="Orbitron, monospace" font-size="16" font-weight="bold" fill="url(#textGradient)">METRICS</text>
  
  <!-- Chart Bars -->
  <rect x="50" y="95" width="100" height="50" fill="#374151" rx="8" opacity="0.8"/>
  <rect x="60" y="115" width="12" height="20" fill="#3b82f6"/>
  <rect x="75" y="105" width="12" height="30" fill="#f97c16"/>
  <rect x="90" y="110" width="12" height="25" fill="#00ffff"/>
  <rect x="105" y="100" width="12" height="35" fill="#8a2be2"/>
  <rect x="120" y="108" width="12" height="27" fill="#10b981"/>
  
  <!-- AI Brain Icon -->
  <circle cx="100" cy="170" r="20" fill="none" stroke="#00ffff" stroke-width="2"/>
  <circle cx="95" cy="165" r="2" fill="#00ffff"/>
  <circle cx="105" cy="165" r="2" fill="#00ffff"/>
  <circle cx="92" cy="175" r="1.5" fill="#3b82f6"/>
  <circle cx="100" cy="178" r="1.5" fill="#f97c16"/>
  <circle cx="108" cy="175" r="1.5" fill="#10b981"/>
  
  <!-- Connection Lines -->
  <line x1="95" y1="167" x2="92" y2="173" stroke="#00ffff" stroke-width="1" opacity="0.6"/>
  <line x1="105" y1="167" x2="108" y2="173" stroke="#00ffff" stroke-width="1" opacity="0.6"/>
  <line x1="100" y1="170" x2="100" y2="176" stroke="#00ffff" stroke-width="1" opacity="0.6"/>
</svg>
